<svg xmlns="http://www.w3.org/2000/svg" viewBox="0 0 22.99 23"><defs><style>.cls-1{fill:#fff;}</style></defs><title>comment</title><g id="Layer_2" data-name="Layer 2"><g id="detailed_release"><path class="cls-1" d="M22.29,20.21l-.77-3.1a11.54,11.54,0,0,0-1.9-13.74A11.38,11.38,0,0,0,13.68.21a11.58,11.58,0,0,0-4.39,0A11.5,11.5,0,0,0,0,11.21a11.48,11.48,0,0,0,3.36,8.42,6.87,6.87,0,0,0,.63.58A11.49,11.49,0,0,0,17.1,21.53L23,23Zm-14.6,0a9.25,9.25,0,0,1-2.94-2A9.51,9.51,0,0,1,18.2,4.76a9.53,9.53,0,0,1,.86,12.45L20,20l-2.79-.93a9.56,9.56,0,0,1-9.51,1.14Z"/><rect class="cls-1" x="6.5" y="8.21" width="10" height="2"/><rect class="cls-1" x="6.5" y="12.21" width="2.12" height="2"/><rect class="cls-1" x="10.59" y="12.21" width="5.91" height="2"/></g></g></svg>