<svg xmlns="http://www.w3.org/2000/svg" viewBox="0 0 181.21 27.95"><defs><style>.cls-1{fill:#fff;}</style></defs><title>logo-outline</title><g id="Layer_2" data-name="Layer 2"><g id="comming-soon"><g id="comming_soon" data-name="comming soon"><path class="cls-1" d="M50.59,12.86H30.85a3.28,3.28,0,0,0-3.27,3.27v1a2.93,2.93,0,0,0,.89,2.11l.23.21.79.62,3.37,2.67a2.81,2.81,0,0,0,1.71.59H49.1v-.05l-2.72-2.16H34.57a.54.54,0,0,1-.34-.12l-1.17-.93L32,19.28l-1.93-1.53a.73.73,0,0,1-.29-.58v-1a1.06,1.06,0,0,1,1.06-1H50.66l.53.41c.07.42.13.82.19,1.21l2.21,1.74.15-.19c0-.38-.05-.79-.09-1.22-.09-.84-.24-1.75-.44-2.7v-.07l-1.78-1.4Z"/><polygon class="cls-1" points="56.62 20.76 56.63 21.16 56.63 20.77 56.62 20.76"/><polygon class="cls-1" points="55.8 21.17 55.8 21.16 55.79 21.16 55.8 21.17"/><path class="cls-1" d="M52.9,21l-.78-.62-.57-.44-.84-.67-2-1.56A2.82,2.82,0,0,0,47,17.07H32.62v.06l2.72,2.15H47a.5.5,0,0,1,.34.12l1.18.93.55.44.5.39,1.5,1.19.43.34a.74.74,0,0,1,.28.59v.92c-.14.57-.42.83-.85.89-.81.11-2.49.2-5,.28-4.07.12-10.3.19-18.37.21H23c-.54,0-1.31,0-2.2.05a85.55,85.55,0,0,1-10.72-.15c-5.25-.51-7-1.73-7.53-2.66l0,0a2.7,2.7,0,0,1-.29-1.05h0v0c0-.15.12-1,1.62-1.76a4.74,4.74,0,0,1,.64-.27c1.09-.38,2.15-.81,3.27-1.26s2.39-1,3.79-1.46c1-.36,1.85-.69,2.62-1l1-.4c2-.8,4.18-1.82,6.09-2.79l.07,0,0,0c2.74-1.66,7-9,7.88-10.51a10.33,10.33,0,0,1,1.82.87c.42.24.85.48,1.27.68l0,0a1.67,1.67,0,0,1-.29.72A1.75,1.75,0,0,0,32.9,7c.81.35,1.66.81,2.55,1.29l.54.29c2.37,1.27,5.94,3.18,8.71.91A23,23,0,0,0,47,7.38c.19-.19.4-.42.52-.52l.11,0c.56.2,1,.35,1.68,2a25.36,25.36,0,0,1,.85,2.42c.07.25.14.5.22.74h1.34l1.2.94c-.19-.75-.41-1.53-.65-2.33-.33-1.08-.63-1.94-.92-2.63-.89-2.11-1.77-2.77-3-3.2-1.47-.52-2.16.21-3,1.05a22.6,22.6,0,0,1-2.1,2C41.93,8.94,40,8.28,37,6.67l-.53-.29c-.74-.4-1.5-.81-2.26-1.17a2.82,2.82,0,0,0,.27-2.08A2.11,2.11,0,0,0,33.3,1.78c-.35-.17-.73-.38-1.14-.61A11.26,11.26,0,0,0,30,.15,2,2,0,0,0,27.44,1C25.6,4.21,22,9.75,20.25,10.84l0,0c-1.85.93-4,1.91-5.86,2.68l-1,.39c-.76.3-1.6.61-2.57,1-1.44.52-2.67,1-3.86,1.49s-2.15.85-3.19,1.23a8.55,8.55,0,0,0-.86.35C.47,19.13-.06,21,0,21.88a4.63,4.63,0,0,0,.52,1.93A.64.64,0,0,0,.61,24c1.18,2,4.2,3.25,9.22,3.74,2,.2,4.1.26,6.05.26s3.58-.05,5-.1c.87,0,1.62-.05,2.13-.05h6.14c6.19,0,12.49-.08,16.89-.21h4.76A3.26,3.26,0,0,0,54,24.42s0-.07,0-.1v-1a3,3,0,0,0-.89-2.12Zm-50.69.79Z"/><path class="cls-1" d="M63.86,20a4.87,4.87,0,0,1-1.6-.75L62.94,18a5,5,0,0,0,1.45.68,5.85,5.85,0,0,0,1.71.25c1.43,0,2.14-.41,2.14-1.22A.78.78,0,0,0,68,17a1.86,1.86,0,0,0-.72-.35q-.44-.11-1.23-.24A11.16,11.16,0,0,1,64.23,16a2.72,2.72,0,0,1-1.18-.75,2.07,2.07,0,0,1-.5-1.48,2.31,2.31,0,0,1,1-2,4.59,4.59,0,0,1,2.74-.74,7.91,7.91,0,0,1,1.8.22,4.79,4.79,0,0,1,1.47.6l-.69,1.29a4.67,4.67,0,0,0-2.6-.71,3,3,0,0,0-1.58.34,1,1,0,0,0-.54.9.86.86,0,0,0,.3.69,2,2,0,0,0,.76.38c.3.07.72.17,1.26.27a11.76,11.76,0,0,1,1.76.4,2.62,2.62,0,0,1,1.15.72,2,2,0,0,1,.47,1.42,2.26,2.26,0,0,1-1,1.95A5,5,0,0,1,66,20.3,7.49,7.49,0,0,1,63.86,20Z"/><path class="cls-1" d="M79.61,12.11a3.91,3.91,0,0,1,1,2.91V20.2H79v-5a2.74,2.74,0,0,0-.63-2,2.34,2.34,0,0,0-1.8-.67,2.8,2.8,0,0,0-2.09.78,3,3,0,0,0-.76,2.21V20.2H72.08v-9h1.56v1.36A3.14,3.14,0,0,1,75,11.49a4.65,4.65,0,0,1,1.91-.38A3.69,3.69,0,0,1,79.61,12.11Z"/><path class="cls-1" d="M92,16.24h-7.3a2.81,2.81,0,0,0,1,1.91,3.39,3.39,0,0,0,2.21.72,3.35,3.35,0,0,0,2.6-1.08l.9,1.05a4,4,0,0,1-1.52,1.09,5.28,5.28,0,0,1-2,.37,5.34,5.34,0,0,1-2.53-.59,4.2,4.2,0,0,1-1.71-1.63,5,5,0,0,1,0-4.74,4.16,4.16,0,0,1,1.61-1.64,4.6,4.6,0,0,1,2.32-.59,4.52,4.52,0,0,1,2.3.59,4.16,4.16,0,0,1,1.58,1.64A5,5,0,0,1,92,15.75,3.39,3.39,0,0,1,92,16.24Zm-6.37-3a2.88,2.88,0,0,0-.93,1.87h5.77a2.86,2.86,0,0,0-.92-1.86,3,3,0,0,0-3.92,0Z"/><path class="cls-1" d="M100.31,12a3.54,3.54,0,0,1,1,2.73V20.2H99.76V19a2.54,2.54,0,0,1-1.17,1,4.43,4.43,0,0,1-1.79.33,3.73,3.73,0,0,1-2.42-.73,2.51,2.51,0,0,1,0-3.83A4.27,4.27,0,0,1,97.09,15h2.58V14.7a2.08,2.08,0,0,0-.61-1.62,2.6,2.6,0,0,0-1.8-.56,4.66,4.66,0,0,0-1.56.27,4,4,0,0,0-1.29.7l-.68-1.22a4.84,4.84,0,0,1,1.66-.86,6.93,6.93,0,0,1,2.06-.3A4.08,4.08,0,0,1,100.31,12Zm-1.62,6.6a2.38,2.38,0,0,0,1-1.18V16.19H97.16c-1.38,0-2.07.47-2.07,1.39a1.25,1.25,0,0,0,.52,1.07,2.41,2.41,0,0,0,1.46.39A3,3,0,0,0,98.69,18.63Z"/><path class="cls-1" d="M108,16l-1.87,1.74V20.2h-1.63V7.6h1.63v8.08L111,11.2h2l-3.79,3.72,4.16,5.28h-2Z"/><path class="cls-1" d="M122.85,16.24h-7.3a2.83,2.83,0,0,0,1,1.91,3.44,3.44,0,0,0,2.22.72,3.37,3.37,0,0,0,2.6-1.08l.9,1.05a4,4,0,0,1-1.52,1.09,5.73,5.73,0,0,1-4.56-.22,4.14,4.14,0,0,1-1.71-1.63,5.06,5.06,0,0,1,0-4.74,4.19,4.19,0,0,1,1.62-1.64,4.57,4.57,0,0,1,2.32-.59,4.52,4.52,0,0,1,2.3.59,4.16,4.16,0,0,1,1.58,1.64,5.07,5.07,0,0,1,.56,2.41C122.88,15.87,122.87,16,122.85,16.24Zm-6.38-3a2.91,2.91,0,0,0-.92,1.87h5.77a2.91,2.91,0,0,0-.92-1.86,2.81,2.81,0,0,0-2-.72A2.85,2.85,0,0,0,116.47,13.2Z"/><path class="cls-1" d="M128.13,11.52a4.6,4.6,0,0,1,2-.41v1.58h-.37a2.73,2.73,0,0,0-2.08.79,3.08,3.08,0,0,0-.76,2.25V20.2h-1.63v-9h1.56v1.51A2.85,2.85,0,0,1,128.13,11.52Z"/><path class="cls-1" d="M133.9,19.74a4.54,4.54,0,0,1-2.54-4.16,4.48,4.48,0,0,1,.67-2.45,4.58,4.58,0,0,1,1.87-1.69,6.1,6.1,0,0,1,2.74-.6,5.3,5.3,0,0,1,2.7.67A3.74,3.74,0,0,1,141,13.37l-2.5,1.28a2,2,0,0,0-1.83-1.24,1.93,1.93,0,0,0-1.43.57,2.19,2.19,0,0,0-.57,1.6,2.22,2.22,0,0,0,.57,1.62,1.91,1.91,0,0,0,1.43.59,2,2,0,0,0,1.83-1.24l2.5,1.27a3.74,3.74,0,0,1-1.61,1.86,5.2,5.2,0,0,1-2.7.67A6,6,0,0,1,133.9,19.74Z"/><path class="cls-1" d="M146.7,11.16a4.83,4.83,0,0,1,1.81-.32v2.91a5.72,5.72,0,0,0-.73-.06,2.26,2.26,0,0,0-1.62.56,2.26,2.26,0,0,0-.59,1.72V20.2h-3.23V11h3.08V12.1A2.92,2.92,0,0,1,146.7,11.16Z"/><path class="cls-1" d="M159.71,11V20.2h-3.07v-1a3.24,3.24,0,0,1-1.22.85,4.06,4.06,0,0,1-1.51.29,3.88,3.88,0,0,1-2.85-1.05A4.26,4.26,0,0,1,150,16.14V11h3.23v4.62a2.36,2.36,0,0,0,.39,1.51,1.38,1.38,0,0,0,1.14.48,1.6,1.6,0,0,0,1.24-.53,2.36,2.36,0,0,0,.49-1.64V11Z"/><path class="cls-1" d="M163,20.09a6.15,6.15,0,0,1-1.8-.69l1-2.21a5.41,5.41,0,0,0,1.5.62,6.34,6.34,0,0,0,1.71.23,2.7,2.7,0,0,0,1.11-.16.5.5,0,0,0,.34-.47c0-.2-.14-.34-.4-.43a9,9,0,0,0-1.27-.25,13.39,13.39,0,0,1-1.87-.35,2.93,2.93,0,0,1-1.34-.82,2.33,2.33,0,0,1-.56-1.66,2.52,2.52,0,0,1,.53-1.57,3.48,3.48,0,0,1,1.54-1.09,6.64,6.64,0,0,1,2.41-.4,9.54,9.54,0,0,1,2,.21,5.49,5.49,0,0,1,1.65.57l-1,2.19a5.39,5.39,0,0,0-2.65-.68,2.62,2.62,0,0,0-1.12.18.54.54,0,0,0-.36.47q0,.32.39.45a10.32,10.32,0,0,0,1.3.26,17.32,17.32,0,0,1,1.88.39,2.92,2.92,0,0,1,1.3.81,2.29,2.29,0,0,1,.55,1.64,2.43,2.43,0,0,1-.53,1.55A3.37,3.37,0,0,1,167.77,20a7,7,0,0,1-2.47.39A10.13,10.13,0,0,1,163,20.09Z"/><path class="cls-1" d="M180.17,11.86a4.13,4.13,0,0,1,1,3.07V20.2H178V15.46c0-1.26-.5-1.88-1.51-1.88a1.73,1.73,0,0,0-1.33.54,2.34,2.34,0,0,0-.5,1.63V20.2h-3.23V7.6h3.23v4.24a3.59,3.59,0,0,1,1.24-.74,4.47,4.47,0,0,1,1.53-.26A3.79,3.79,0,0,1,180.17,11.86Z"/></g></g></g></svg>