<svg xmlns="http://www.w3.org/2000/svg" viewBox="0 0 183.36 27.2"><defs><style>.cls-1{fill:#fff;}</style></defs><title>logo-white</title><g id="Layer_2" data-name="Layer 2"><g id="_Group_" data-name="&lt;Group&gt;"><g id="homepage"><g id="footer"><path class="cls-1" d="M49.24,12.52H30a3.18,3.18,0,0,0-3.18,3.18v1a2.89,2.89,0,0,0,.87,2.06l.23.2.76.6L32,22.17a2.67,2.67,0,0,0,1.67.58H47a.29.29,0,0,0,.18-.51l-2-1.64H33.65a.5.5,0,0,1-.33-.12l-1.15-.91-1-.8-1.88-1.49a.74.74,0,0,1-.27-.57v-1a1,1,0,0,1,1-1H49.3l.52.41q.1.6.18,1.17L52.16,18l.14-.18c0-.38,0-.78-.09-1.2-.09-.83-.23-1.74-.43-2.69h0l-1.73-1.36Z"/><path class="cls-1" d="M51.72,20.6l-.23-.21-.77-.6-.55-.44-.82-.65-1.91-1.51a2.7,2.7,0,0,0-.7-.4,2.87,2.87,0,0,0-1-.18h-14v.06l2.65,2.1H45.78a.59.59,0,0,1,.33.11l1.14.91.54.42.48.39.76.59.7.56.42.33a.72.72,0,0,1,.28.57v.91c-.14.54-.41.8-.84.86s-.79.08-1.39.12h0c-.87.06-2,.11-3.44.15-2.76.08-6.53.14-11.22.18h0l-6.66,0H22.36c-.53,0-1.28,0-2.15.05a82.68,82.68,0,0,1-10.43-.14C6.11,24.45,4.2,23.74,3.22,23c2.66,1,10.07.68,12,.68,1.4,0,10.67-.45,14.46-.63l-3.09-2.45a4.25,4.25,0,0,1-.39-.35,5,5,0,0,1-1.51-3.57v-1A5.3,5.3,0,0,1,30,10.4H50.78l.13.1h0l0-.14A27.16,27.16,0,0,0,50,7.79c-.87-2-1.72-2.69-2.91-3.11-1.43-.5-2.1.2-2.88,1a20.27,20.27,0,0,1-2,1.91C40.81,8.7,39,8.06,36,6.49l-.52-.28c-.72-.39-1.46-.79-2.2-1.14a2.78,2.78,0,0,0,.27-2,2.13,2.13,0,0,0-1.18-1.31c-.34-.16-.72-.37-1.11-.59a11.31,11.31,0,0,0-2.09-1,2,2,0,0,0-2.51.8c-1.78,3.16-5.25,8.54-7,9.61l0,0c-1.8.91-3.87,1.86-5.71,2.6l-1,.39c-.74.29-1.56.59-2.5.94-1.4.5-2.6,1-3.76,1.45s-2.08.83-3.1,1.2a8.16,8.16,0,0,0-.84.34C.46,18.62-.06,20.4,0,21.29a4.5,4.5,0,0,0,.51,1.88.61.61,0,0,0,.07.14c1.15,2,4.09,3.17,9,3.64,1.95.19,4,.25,5.88.25s3.49-.05,4.83-.09c.85,0,1.58-.05,2.08-.05h6c6,0,12.16-.08,16.44-.21H49.4a3.19,3.19,0,0,0,3.18-3.07V22.65A2.86,2.86,0,0,0,51.72,20.6Z"/><path class="cls-1" d="M62.55,19.81A4.92,4.92,0,0,1,60.91,19l.7-1.33a5.08,5.08,0,0,0,1.48.7,6.32,6.32,0,0,0,1.77.26c1.47,0,2.2-.42,2.2-1.26a.8.8,0,0,0-.3-.66,1.9,1.9,0,0,0-.74-.36c-.3-.08-.72-.16-1.27-.25a13.14,13.14,0,0,1-1.82-.4A2.89,2.89,0,0,1,61.71,15a2.15,2.15,0,0,1-.51-1.52,2.37,2.37,0,0,1,1-2,4.69,4.69,0,0,1,2.82-.76,7.79,7.79,0,0,1,1.85.22,5,5,0,0,1,1.52.61l-.71,1.33a4.83,4.83,0,0,0-2.68-.73,3.16,3.16,0,0,0-1.63.35,1,1,0,0,0-.55.93.86.86,0,0,0,.31.71,1.91,1.91,0,0,0,.78.39c.31.08.74.17,1.3.28a12.17,12.17,0,0,1,1.81.41,2.66,2.66,0,0,1,1.18.74,2.06,2.06,0,0,1,.49,1.47,2.31,2.31,0,0,1-1.08,2,5,5,0,0,1-2.92.74A7.93,7.93,0,0,1,62.55,19.81Z"/><path class="cls-1" d="M78.76,11.68a4,4,0,0,1,1,3V20H78.13V14.87a2.86,2.86,0,0,0-.65-2,2.45,2.45,0,0,0-1.85-.68,2.88,2.88,0,0,0-2.15.79,3.11,3.11,0,0,0-.79,2.29V20H71V10.74h1.61v1.4A3.26,3.26,0,0,1,74,11a4.74,4.74,0,0,1,2-.38A3.81,3.81,0,0,1,78.76,11.68Z"/><path class="cls-1" d="M91.48,15.93H84a2.93,2.93,0,0,0,1.08,2,3.83,3.83,0,0,0,5-.37l.92,1.08a4.11,4.11,0,0,1-1.56,1.12,5.6,5.6,0,0,1-2.09.38,5.52,5.52,0,0,1-2.61-.6,4.25,4.25,0,0,1-1.75-1.69,4.76,4.76,0,0,1-.62-2.44,4.92,4.92,0,0,1,.6-2.43,4.22,4.22,0,0,1,1.66-1.69,4.77,4.77,0,0,1,2.39-.6,4.69,4.69,0,0,1,2.37.6A4.19,4.19,0,0,1,90.93,13a5.14,5.14,0,0,1,.59,2.48C91.52,15.56,91.5,15.73,91.48,15.93Zm-6.56-3.12a3,3,0,0,0-1,1.92h6a3,3,0,0,0-1-1.92,2.93,2.93,0,0,0-2-.74A2.89,2.89,0,0,0,84.92,12.81Z"/><path class="cls-1" d="M100.07,11.6a3.62,3.62,0,0,1,1,2.81V20H99.51V18.78a2.62,2.62,0,0,1-1.2,1,4.56,4.56,0,0,1-1.85.34A3.89,3.89,0,0,1,94,19.36a2.59,2.59,0,0,1,0-3.94,4.36,4.36,0,0,1,2.83-.74h2.66v-.34a2.15,2.15,0,0,0-.63-1.66,2.68,2.68,0,0,0-1.85-.57,4.9,4.9,0,0,0-1.61.27A4.12,4.12,0,0,0,94,13.1l-.7-1.26A5.32,5.32,0,0,1,95,11a7.34,7.34,0,0,1,2.12-.3A4.17,4.17,0,0,1,100.07,11.6ZM98.4,18.39a2.43,2.43,0,0,0,1-1.21v-1.3H96.83q-2.13,0-2.13,1.44a1.31,1.31,0,0,0,.54,1.1,2.45,2.45,0,0,0,1.5.4A3.06,3.06,0,0,0,98.4,18.39Z"/><path class="cls-1" d="M108,15.69l-1.92,1.78V20h-1.68V7h1.68v8.32l5-4.62h2l-3.9,3.83L113.52,20h-2.06Z"/><path class="cls-1" d="M123.28,15.93h-7.52a2.93,2.93,0,0,0,1.08,2,3.47,3.47,0,0,0,2.28.74,3.43,3.43,0,0,0,2.67-1.11l.93,1.08a4.11,4.11,0,0,1-1.56,1.12,5.6,5.6,0,0,1-2.09.38,5.52,5.52,0,0,1-2.61-.6,4.2,4.2,0,0,1-1.75-1.69,4.77,4.77,0,0,1-.63-2.44,4.92,4.92,0,0,1,.61-2.43,4.22,4.22,0,0,1,1.66-1.69,4.73,4.73,0,0,1,2.38-.6,4.64,4.64,0,0,1,2.37.6A4.15,4.15,0,0,1,122.73,13a5.13,5.13,0,0,1,.58,2.48C123.31,15.56,123.3,15.73,123.28,15.93Zm-6.56-3.12a3,3,0,0,0-1,1.92h5.95a3,3,0,0,0-1-1.92,3.11,3.11,0,0,0-4,0Z"/><path class="cls-1" d="M128.72,11.08a4.67,4.67,0,0,1,2.08-.42v1.62l-.39,0a2.8,2.8,0,0,0-2.14.82,3.2,3.2,0,0,0-.78,2.31V20h-1.68V10.74h1.61V12.3A2.8,2.8,0,0,1,128.72,11.08Z"/><path class="cls-1" d="M134.66,19.54A4.66,4.66,0,0,1,132,15.25,4.61,4.61,0,0,1,134.66,11a6.11,6.11,0,0,1,2.81-.62,5.36,5.36,0,0,1,2.78.69A3.77,3.77,0,0,1,141.91,13l-2.57,1.31A2,2,0,0,0,137.46,13a2,2,0,0,0-1.48.59,2.24,2.24,0,0,0-.59,1.64,2.3,2.3,0,0,0,.59,1.67,2,2,0,0,0,1.48.61,2,2,0,0,0,1.88-1.28l2.57,1.31a3.77,3.77,0,0,1-1.66,1.91,5.27,5.27,0,0,1-2.78.7A6.12,6.12,0,0,1,134.66,19.54Z"/><path class="cls-1" d="M147.83,10.7a4.9,4.9,0,0,1,1.86-.32v3a5.86,5.86,0,0,0-.75-.06,2.29,2.29,0,0,0-1.67.58,2.34,2.34,0,0,0-.6,1.77V20h-3.32V10.53h3.16v1.14A3.16,3.16,0,0,1,147.83,10.7Z"/><path class="cls-1" d="M161.23,10.53V20h-3.16V19a3.38,3.38,0,0,1-1.26.88,4.09,4.09,0,0,1-1.56.3,4,4,0,0,1-2.93-1.09,4.41,4.41,0,0,1-1.09-3.25v-5.3h3.32v4.76a2.46,2.46,0,0,0,.4,1.55,1.43,1.43,0,0,0,1.18.49,1.64,1.64,0,0,0,1.28-.55,2.44,2.44,0,0,0,.5-1.68V10.53Z"/><path class="cls-1" d="M164.64,19.89a6.12,6.12,0,0,1-1.85-.7l1-2.28a5.71,5.71,0,0,0,1.54.64,6.79,6.79,0,0,0,1.77.24,2.83,2.83,0,0,0,1.14-.17.51.51,0,0,0,.34-.48c0-.21-.14-.36-.41-.44a7.84,7.84,0,0,0-1.3-.26,11.43,11.43,0,0,1-1.93-.37,3,3,0,0,1-1.37-.83,2.39,2.39,0,0,1-.58-1.72,2.58,2.58,0,0,1,.54-1.61,3.51,3.51,0,0,1,1.58-1.12,6.7,6.7,0,0,1,2.49-.41,10.12,10.12,0,0,1,2,.21,5.75,5.75,0,0,1,1.69.59l-1,2.26a5.49,5.49,0,0,0-2.73-.7,2.75,2.75,0,0,0-1.15.18.54.54,0,0,0-.37.48.47.47,0,0,0,.4.46,8.51,8.51,0,0,0,1.33.27,15.26,15.26,0,0,1,1.94.41,2.91,2.91,0,0,1,1.34.83,2.34,2.34,0,0,1,.57,1.68,2.51,2.51,0,0,1-.55,1.6,3.38,3.38,0,0,1-1.6,1.11,7.08,7.08,0,0,1-2.54.41A10.26,10.26,0,0,1,164.64,19.89Z"/><path class="cls-1" d="M182.29,11.42a4.28,4.28,0,0,1,1.07,3.17V20H180V15.13c0-1.29-.52-1.94-1.56-1.94a1.79,1.79,0,0,0-1.37.56,2.41,2.41,0,0,0-.51,1.68V20h-3.33V7h3.33v4.37a3.5,3.5,0,0,1,1.27-.77,4.56,4.56,0,0,1,1.58-.26A3.94,3.94,0,0,1,182.29,11.42Z"/></g></g></g></g></svg>