<svg width="163" height="127" viewBox="0 0 163 127" fill="none" xmlns="http://www.w3.org/2000/svg">
<path fill-rule="evenodd" clip-rule="evenodd" d="M160.691 26.6296L145.658 23.2143L120.132 17.4504C119.74 17.362 119.335 17.4288 118.998 17.6264C118.781 17.3138 118.451 17.0819 118.059 16.9932L110.1 15.194C109.697 15.1029 109.28 15.176 108.937 15.3872C108.716 15.0432 108.363 14.7887 107.94 14.7005L107.221 14.5509L96.8976 12.206C96.5563 12.1284 96.1988 12.1677 95.8825 12.3176L95.5995 12.4516C95.3889 12.0735 95.0244 11.7882 94.5791 11.6873L78.6917 8.08905L70.0033 6.10746C69.5825 6.0115 69.1459 6.09456 68.7934 6.32781C68.5742 5.96976 68.2135 5.70382 67.7789 5.61328L67.0621 5.46395L62.0225 4.31031L62.015 4.3086L60.5892 3.97488L60.5794 3.97262L43.1964 0.0385659C42.6608 -0.0826415 42.1008 0.0862424 41.7215 0.483404L26.8099 16.0963C26.5808 16.3362 26.4339 16.6429 26.3907 16.9718L25.0891 26.8635L18.8906 25.4701C18.3556 25.3498 17.7967 25.5187 17.4179 25.9152L0.432789 43.6932C0.155009 43.984 0 44.3706 0 44.7727V55.5371C0 56.2667 0.504884 56.8992 1.21635 57.0609L2.68347 57.3943V99.5094C2.68347 100.239 3.18891 100.872 3.9009 101.033L28.2631 106.552L36.6794 108.473C37.2306 108.599 37.8067 108.418 38.186 107.998L38.7274 107.4V107.682C38.7274 108.411 39.2321 109.044 39.9434 109.206L71.4867 116.367L71.5057 116.372L72.249 116.55L72.2655 116.554L73.3328 116.798L73.3396 116.8L94.045 121.435L94.0631 121.439L94.08 121.442L94.2022 121.467L103.778 123.777C103.842 123.793 103.907 123.804 103.973 123.811L104.326 123.882C104.838 123.984 105.368 123.824 105.737 123.454L106.378 122.814L106.394 122.798V123.02C106.394 123.746 106.893 124.376 107.6 124.542L117.876 126.951C118.43 127.081 119.01 126.899 119.392 126.478L119.957 125.853L160.621 83.268L160.638 83.2501C160.645 83.2425 160.652 83.2348 160.659 83.227L160.903 82.9526C161.157 82.6665 161.298 82.2971 161.298 81.9144V41.5849L162.027 40.8175C162.039 40.805 162.05 40.7923 162.062 40.7794L162.306 40.5049C162.56 40.2189 162.7 39.8495 162.7 39.4667V28.3364C162.7 27.6088 162.198 26.9774 161.489 26.8138L160.696 26.6308L160.691 26.6296ZM96.5515 13.7298L106.889 16.0779L107.621 16.2303V17.0232L107.621 18.9443V16.2303L106.889 16.0778L96.5515 13.7298ZM109.755 16.7182L117.714 18.5174V19.6152L117.714 21.1703V18.5174L109.755 16.7182ZM144.773 24.6165L145.311 24.7382L160.345 28.1535L161.138 28.3365V29.4342L161.138 39.4667V28.3364L160.345 28.1535L145.311 24.7381L144.773 24.6165ZM60.2331 5.49643L61.6663 5.83187L66.7283 6.99064L67.4602 7.14311V9.82658L67.4602 8.17993V7.14313L66.7283 6.99066L61.6663 5.83189L60.2331 5.49645L60.2008 5.48911L60.2331 5.49643ZM43.6353 1.74008L42.8515 1.56271L42.8515 1.56273L43.6353 1.74008ZM69.6558 7.63101L78.3465 9.61314L94.2339 13.2114V14.3092L94.2339 14.8276V13.2114L78.3466 9.61312L69.6558 7.63101ZM26.4152 28.7633L18.5478 26.9947L18.5478 26.9947L26.4152 28.7634L26.4152 28.7633Z" fill="#8000FF"/>
<path d="M5.46924 98.9694V55.6052L117.982 80.9987V124.233L108.606 122.019V117.201L104.178 121.368L41.4107 107.304V101.965L36.2018 105.871L5.46924 98.9694Z" fill="url(#paint0_linear_8615_8323)"/>
<path d="M2.60449 54.954V45.9687L3.38583 45.578L119.284 71.883V81.259L2.60449 54.954Z" fill="#8F8F8F"/>
<path d="M28.9094 17.5801L42.9735 2.34399L66.0229 7.68313L66.8042 11.72L70.19 8.46446L93.2394 13.9338L92.4581 16.0174L97.0159 14.7152L106.783 16.9289V21.3565L110.038 17.5801L116.81 19.4032V23.3099L120.456 20.0543L160.044 29.3001L140.25 50.0055L134.39 51.3078L133.609 56.9073L119.675 71.6225L2.73462 44.9268L18.6218 28.1281L26.5654 29.9512L28.9094 17.5801Z" fill="white"/>
<path fill-rule="evenodd" clip-rule="evenodd" d="M66.0227 8.85522L60.5533 16.929L66.5436 11.8503L66.0227 8.85522ZM77.0916 18.101L67.1947 28.6491L76.8312 30.9931L86.9886 20.3148L77.0916 18.101ZM15.4963 39.8482L25.0025 30.342L25.7839 33.5976L18.8821 40.7598L15.4963 39.8482ZM34.639 41.9318L25.7839 50.9172V59.9025L29.1697 60.5537L29.4301 51.1776L34.639 41.9318ZM59.1209 50.3963L49.0937 47.7918L61.0742 35.03L70.5805 37.1136L59.1209 50.3963ZM96.8855 22.5286L93.7601 21.7473L83.4725 32.5558L86.9886 33.3371L96.8855 22.5286ZM59.1209 67.5857V58.3399L77.6125 38.9367L80.9983 39.5878L62.7671 58.8608V68.1066L59.1209 67.5857ZM75.7894 62.2466V71.3622L79.4356 72.0133V63.1581L93.4997 48.1825L94.281 42.9736L75.7894 62.2466ZM100.662 48.7034L101.443 39.5878L111.601 36.8531L100.662 48.7034ZM116.419 20.3148L105.871 30.9931L110.298 30.2118L116.679 23.31L116.419 20.3148ZM136.864 31.9047L127.358 29.6909L117.2 40.2389L127.358 42.4527L136.864 31.9047ZM111.601 46.4896L120.977 48.7034L108.866 61.2048L99.4899 58.8608L111.601 46.4896ZM127.358 50.9172L109.517 69.2786V79.1755L112.642 79.8266L113.033 70.1901L127.358 55.0843V50.9172ZM147.672 33.9882L144.026 33.3371L134.129 43.8852L137.385 44.5363L147.672 33.9882ZM159.913 29.6909L139.859 50.3963L134.39 51.8287L133.348 57.6888L119.674 71.6226V80.7382L133.869 66.6741L134.129 61.5954L140.38 59.7723L160.174 38.8065L159.913 29.6909ZM18.6216 77.4826L27.4768 79.8266V84.7751L18.6216 82.952V92.5885L13.9336 91.156V66.9346L18.6216 68.1066V77.4826ZM41.1501 73.055L36.4621 72.2737V81.78L40.8897 82.8218L41.1501 73.055ZM45.5777 88.9422L50.5262 85.0355L50.1355 94.2814L45.5777 88.9422ZM41.1501 101.313L36.8528 105.741V92.0676L41.1501 97.4067V101.313ZM59.1209 100.792L59.3813 68.4973V68.2368L63.6787 69.2786V102.485L59.1209 100.792ZM95.5833 90.5049L86.5979 88.2911L86.3374 82.8218L81.7796 82.5613V87.3796L95.0624 99.6205L95.5833 90.5049ZM72.7943 90.5049L73.0547 99.6205L81.7796 101.965V106.522L86.3374 107.173V102.746L72.7943 90.5049ZM104.178 78.3942V92.0676L108.866 93.1094L108.736 78.9151L104.178 78.3942ZM108.866 102.746L104.178 101.965V121.107L108.736 116.94L108.866 102.746ZM118.112 81.2591V123.972L158.872 81.6497L158.481 41.4109L140.119 60.2932L134.39 61.9861L134.259 66.5439L119.414 81.5195L118.112 81.2591ZM43.8849 10.6784L46.6196 11.3295L37.2436 22.0077L43.1036 23.5704L33.7276 33.858L35.5507 19.1428L43.8849 10.6784Z" fill="#1B1B1B"/>
<path d="M133.478 57.9493L134.39 51.4381L139.989 50.3964L160.044 29.8212L160.304 39.067L140.641 59.7724L134.39 61.7257L133.999 66.2835L119.805 81.2592V71.7529L133.478 57.9493Z" fill="#8F8F8F"/>
<path fill-rule="evenodd" clip-rule="evenodd" d="M160.345 28.1535L145.311 24.7382L128.57 20.9569L119.788 18.9748L117.714 21.1704V19.6152V18.5174L109.755 16.7183L107.621 18.9443V17.0232V16.2304L106.889 16.0779L96.5516 13.7298L94.234 14.8276V14.3092V13.2115L78.3466 9.61316L69.6559 7.63105L67.4603 9.82662V8.17994V7.14315L66.7284 6.99068L61.6664 5.8319L60.2332 5.49647L59.5623 5.344L42.8516 1.56274L27.9401 17.1757L26.4154 28.7634L18.5479 26.9947L1.56274 44.7727V45.8705V55.5371L4.24622 56.147V99.5095L28.6109 105.029L37.0273 106.95L37.6067 106.31L40.2901 103.504V107.682L51.146 110.152L71.8514 114.848L72.6138 115.031L73.6811 115.275L94.3865 119.91L94.539 119.94L104.145 122.258H104.175L104.632 122.349L105.273 121.709L107.956 118.904V123.02L118.233 125.429L118.812 124.789L159.491 82.1889L159.735 81.9144V40.961L160.894 39.7412L161.138 39.4668V29.4343V28.3365L160.345 28.1535ZM127.107 22.5121L141.744 25.836L137.901 29.8307L137.048 30.715L127.015 28.4585L115.305 40.717L125.338 42.9736L124.423 43.9494L120.916 47.5477L110.945 45.2911L97.1919 59.6843L107.224 61.9714L102.559 66.8504L87.9218 63.5265L100.272 50.5971L127.107 22.5121ZM113.811 79.048V71.272L118.66 72.3698V80.1458L113.811 79.048ZM111.982 69.7473V70.8451V78.6211L110.518 78.2856V69.6863L126.649 52.7927L126.375 54.6833L111.982 69.7473ZM108.688 77.8587L107.956 77.6758V77.7368L103.779 76.7914V68.985L108.688 70.0523V77.8587ZM101.949 68.5886V76.3645L87.0374 72.9797V65.2037L101.065 68.3751V68.4056L101.949 68.5886ZM135.584 32.2397L126.832 41.4184L118.873 39.6193L127.625 30.4406L135.584 32.2397ZM119.514 49.1029L108.688 60.4162L100.729 58.617L111.555 47.3037L119.514 49.1029ZM85.2078 64.8073V72.5833L80.3592 71.4855V63.7095L84.354 64.6243L85.2078 64.8073ZM78.5296 62.1848V63.2826V71.0891L77.0049 70.7536V62.1848L93.1972 45.2301L92.9228 47.1513L78.5296 62.1848ZM75.1753 70.3267L70.3267 69.2289V61.453L75.1753 62.5507V70.3267ZM68.4666 61.026V68.802L63.618 67.7042V59.9283L67.6128 60.8431L68.4666 61.026ZM61.7884 58.4036V59.5013V67.2773L60.2637 66.9419V58.3731L78.0722 39.7412L79.3224 40.0157L61.7884 58.4036ZM58.4341 66.5455L53.5855 65.4477V57.6717L58.4341 58.7695V66.5455ZM51.7559 57.2448V65.0208L36.8443 61.6359V53.86L50.8715 57.0313L51.7559 57.2448ZM35.0147 53.4635V61.2395L30.1661 60.1417V52.3657L34.1608 53.2806L35.0147 53.4635ZM28.3365 50.902V51.9388V59.7148L26.8118 59.3794V50.8106L33.4595 43.8274L28.3365 50.902ZM24.9821 58.9524L20.1336 57.8547V50.0787L24.9821 51.1765V58.9524ZM60.1722 68.802L62.8557 69.4119V101.309L60.1722 100.699V68.802ZM105.273 79.0175L107.956 79.6274V92.2519L105.273 91.642V79.0175ZM120.489 72.0039L132.992 58.922V65.9356L120.489 79.0175V72.0039ZM134.822 56.6959L135.37 52.3048L139.091 51.4204V59.5623L134.822 60.6601V56.6959ZM139.518 49.4383L133.693 50.8106L133.022 56.208L119.27 70.6317L114.665 69.5949L127.899 55.7506L128.113 55.5371L129.333 47.3647L109.329 68.3141L104.663 67.3078L110.792 60.9041L125.765 45.2301L128.967 41.9368H128.906L143.817 26.3239L158.454 29.6477L139.518 49.4383ZM101.705 46.4194L102.498 39.9852L109.573 38.1555L101.705 46.4194ZM115.885 23.061L109.39 29.8612L107.438 30.3186L115.885 21.5058V23.061ZM110.365 18.7004L115.031 19.7677L101.888 33.49L110.365 31.5383L120.428 20.9874L125.033 22.0242L111.982 35.6855L100.851 38.552L99.601 48.6455L93.1057 55.4456L85.8177 63.0691L81.2131 62.0323L94.6304 47.9746L95.8502 39.8022L75.7851 60.8126L71.1805 59.7758L82.6158 47.7916L106.828 22.4206L107.377 21.8717L110.365 18.7004ZM96.7955 15.651L105.7 17.6636L105.12 21.5973L69.0765 59.2879L64.4719 58.2511L82.8903 38.9789L77.4623 37.7591L59.0439 57.0313L54.4393 55.9945L60.5686 49.5603L75.5412 33.8864L78.7431 30.593H78.6821L89.7514 19.0053L96.7955 15.651ZM58.495 49.0724L50.5361 47.2732L61.3615 35.96L69.3204 37.7591L58.495 49.0724ZM76.639 30.0746L68.68 28.2755L77.4318 19.0968L85.3908 20.8959L76.639 30.0746ZM86.885 19.3407L76.8524 17.0842L65.1427 29.3428L75.1753 31.5993L74.2604 32.5751L70.7536 36.1734L60.7821 33.9169L46.9988 48.3405L57.0313 50.6276L52.3658 55.5066L37.7286 52.1828L76.9134 11.1379L91.5505 14.4617L86.885 19.3407ZM65.6611 11.6563L62.0933 15.2241L65.6611 10.589V11.6563ZM64.9598 8.45439L52.5792 26.2934L70.2657 9.64365L74.8398 10.6804L35.6245 51.7254L30.8065 50.6276L44.3153 30.4406L25.592 49.4383L20.9874 48.4015L34.4048 34.3438V34.2523L43.736 24.5247H43.7664L60.1722 7.3566L64.9598 8.45439ZM41.6624 24.0368L34.8317 31.1724L35.96 22.7256L41.6624 24.0368ZM36.1124 21.3838L36.3564 19.5237L43.9799 11.5343L45.2302 11.8087L36.1124 21.3838ZM24.6467 33.3985L18.3649 39.9852L17.1147 39.7107L24.6772 31.8128V33.3985H24.6467ZM19.1578 29.0073L23.7624 30.0441L13.5164 40.7475L18.9443 41.9673L27.6961 32.7886L29.6477 17.9685L43.431 3.54485L58.0681 6.8687L43.1261 22.4816L38.552 21.4448L48.8284 10.7414L43.4005 9.52168L34.6487 18.7004L32.6971 33.429L18.7919 47.9136L4.24622 44.6203L19.1578 29.0073ZM3.39238 46.2974L17.3281 49.4383L18.304 49.6518V57.4277L3.39238 54.0734V46.2974ZM26.7813 80.5422V83.4696L17.7551 81.4265V91.0626L15.0716 90.4528V68.2226L17.7551 68.8325V78.4686L26.7813 80.5422ZM26.7813 102.742L6.07586 98.0458V56.5739L26.7813 61.27V78.6821L19.5847 77.0659V67.4298L13.2419 65.9966V91.9774L19.5847 93.4107V83.7746L26.7813 85.3907V102.742ZM37.6371 103.657V94.173L40.3206 97.6493V100.851L37.6371 103.657ZM35.8075 88.8061V104.785L28.6109 103.169V61.6664L49.3164 66.3625V84.4759L44.2848 88.5316L49.3164 94.8744V107.865L42.1198 106.249V97.009L35.8075 88.8061ZM49.3164 86.824V91.9165L46.8463 88.8061L49.3164 86.824ZM51.146 108.292V94.234V85.3602V66.7894L58.3426 68.4056V102.132L64.6853 103.565V69.8693L71.8819 71.4855V90.4223V98.5337V112.988L51.146 108.292ZM73.7116 98.9301V92.1299L85.4212 103.108V106.371L82.7378 105.761V100.973L73.7116 98.9301ZM73.7116 113.384V100.821L80.9081 102.437V107.255L87.2509 108.688V102.315L73.7116 89.5989V71.8514L94.417 76.5475V89.1415L87.2204 87.5253V82.7073L80.8776 81.2741V87.6473L94.417 100.363V118.019L73.7116 113.384ZM94.417 91.0626V97.8628L82.7073 86.8849V83.5916L85.3908 84.2015V89.0195L94.417 91.0626ZM105.273 119.056V103.138L107.956 103.748V116.251L105.273 119.056ZM116.952 123.264L109.755 121.587V102.315L103.413 100.882V120.184L96.2161 118.507V99.5704V91.4895V77.0354L103.413 78.6516V93.1057L109.755 94.5389V80.0238L113.201 80.8166L116.952 81.701V123.264ZM157.905 81.1521L118.782 122.106V82.0669L119.879 82.3109L120.489 81.6705L134.578 66.9114C134.578 66.9114 134.608 66.8809 134.608 66.8504C134.639 66.8199 134.669 66.7894 134.669 66.7589C134.669 66.7284 134.7 66.6979 134.7 66.6979C134.7 66.6827 134.707 66.6674 134.715 66.6522C134.722 66.6369 134.73 66.6217 134.73 66.6064C134.73 66.5912 134.738 66.576 134.745 66.5607C134.753 66.5455 134.761 66.5302 134.761 66.515C134.761 66.4997 134.768 66.4845 134.776 66.4692C134.783 66.454 134.791 66.4387 134.791 66.4235V66.332V66.271V62.4898L139.396 61.3005L140.493 60.9955L157.844 42.8211V81.1521H157.905ZM159.339 38.7349L158.454 39.6802C158.416 39.7184 158.378 39.7546 158.34 39.7908C158.226 39.8994 158.111 40.0081 157.997 40.1681L140.92 58.0071V50.6276L159.339 31.3554V38.7349ZM99.0214 22.1157L87.1593 34.3743L81.8533 33.185L93.5935 20.896L99.0214 22.1157ZM95.4231 23.1525L94.1729 22.8781L85.3906 32.0872L86.5494 32.3617L95.4231 23.1525ZM132.046 44.4678L143.756 32.2092L149.184 33.429L137.474 45.6876L132.046 44.4678ZM135.614 43.431L136.864 43.7055L145.616 34.5268L144.366 34.2523L135.614 43.431ZM35.8074 71.0586L42.1501 72.4918V84.0185L35.8074 82.5853V71.0586ZM37.637 81.1216L40.3205 81.7315V73.9555L37.637 73.3456V81.1216Z" fill="#1B1B1B"/>
<path d="M117.982 85.4262L4.94849 59.7078V55.9958C42.6705 64.3919 118.088 81.184 117.982 81.184C117.876 81.184 117.938 84.8959 117.982 85.4262Z" fill="#232323" fill-opacity="0.23"/>
<defs>
<linearGradient id="paint0_linear_8615_8323" x1="63.4184" y1="84.2542" x2="59.5117" y2="113.945" gradientUnits="userSpaceOnUse">
<stop stop-color="#A447E4"/>
<stop offset="1" stop-color="#7F24F1"/>
</linearGradient>
</defs>
</svg>
