<svg xmlns="http://www.w3.org/2000/svg" viewBox="0 0 486.03 197.97"><defs><style>.cls-1{fill:#fff;}</style></defs><title>Asset 7</title><g id="Layer_2" data-name="Layer 2"><g id="comming-soon"><g id="comming_soon" data-name="comming soon"><path class="cls-1" d="M8.14,11.63H15.9V59.16H45.29v6.75H8.14Z" transform="translate(-4.34 -11.01)"/><path class="cls-1" d="M89,52.34H60.17l-6,13.57h-8L70.8,11.63h7.67l24.66,54.28H95Zm-2.72-6.2L74.6,19.54,62.89,46.14Z" transform="translate(-4.34 -11.01)"/><path class="cls-1" d="M109.57,42.49V11.63h7.75V42.18c0,12,5.51,17.45,15.28,17.45S148,54.2,148,42.18V11.63h7.52V42.49c0,15.74-8.6,24-22.95,24S109.57,58.23,109.57,42.49Z" transform="translate(-4.34 -11.01)"/><path class="cls-1" d="M218.05,11.63V65.91h-6.36L179.12,25.43V65.91h-7.75V11.63h6.35l32.57,40.48V11.63Z" transform="translate(-4.34 -11.01)"/><path class="cls-1" d="M229.91,38.77c0-16.05,12.25-27.76,28.77-27.76,8.37,0,15.66,2.87,20.63,8.45l-5,4.89A20.13,20.13,0,0,0,259,17.91c-12.25,0-21.33,8.84-21.33,20.86S246.74,59.63,259,59.63a20.19,20.19,0,0,0,15.28-6.51l5,4.88c-5,5.58-12.26,8.53-20.71,8.53C242.16,66.53,229.91,54.82,229.91,38.77Z" transform="translate(-4.34 -11.01)"/><path class="cls-1" d="M337.07,11.63V65.91h-7.75V41.72H298.15V65.91h-7.76V11.63h7.76V35h31.17V11.63Z" transform="translate(-4.34 -11.01)"/><path class="cls-1" d="M353.36,11.63h7.75V65.91h-7.75Z" transform="translate(-4.34 -11.01)"/><path class="cls-1" d="M424.08,11.63V65.91h-6.36L385.15,25.43V65.91h-7.76V11.63h6.36l32.57,40.48V11.63Z" transform="translate(-4.34 -11.01)"/><path class="cls-1" d="M478,38.46h7.44V59.63c-5.43,4.57-13,6.9-20.55,6.9-16.67,0-28.92-11.71-28.92-27.76S448.19,11,465,11c8.6,0,15.89,2.87,20.86,8.37l-4.81,4.81a21.54,21.54,0,0,0-15.74-6.28c-12.56,0-21.64,8.76-21.64,20.86,0,11.94,9.08,20.86,21.56,20.86A23,23,0,0,0,478,56.14Z" transform="translate(-4.34 -11.01)"/><path class="cls-1" d="M4.34,196.42l8.53-18.92c9.15,6.66,22.8,11.32,35.83,11.32,14.89,0,20.94-5,20.94-11.64,0-20.31-63.13-6.35-63.13-46.68,0-18.45,14.89-33.81,45.76-33.81,13.64,0,27.6,3.26,37.68,9.62L82.2,125.38c-10.08-5.73-20.47-8.53-30.09-8.53-14.89,0-20.63,5.59-20.63,12.41,0,20,63.12,6.21,63.12,46.06,0,18.15-15,33.66-46.06,33.66C31.33,209,14,203.86,4.34,196.42Z" transform="translate(-4.34 -11.01)"/><path class="cls-1" d="M110.73,152.84c0-32.26,25.12-56.15,59.4-56.15,34.12,0,59.4,23.73,59.4,56.15S204.25,209,170.13,209C135.85,209,110.73,185.09,110.73,152.84Zm93.36,0c0-20.63-14.58-34.74-34-34.74s-34,14.11-34,34.74,14.58,34.74,34,34.74S204.09,173.46,204.09,152.84Z" transform="translate(-4.34 -11.01)"/><path class="cls-1" d="M247.36,152.84c0-32.26,25.12-56.15,59.4-56.15,34.12,0,59.4,23.73,59.4,56.15S340.88,209,306.76,209C272.48,209,247.36,185.09,247.36,152.84Zm93.36,0c0-20.63-14.58-34.74-34-34.74s-34,14.11-34,34.74,14.58,34.74,34,34.74S340.72,173.46,340.72,152.84Z" transform="translate(-4.34 -11.01)"/><path class="cls-1" d="M490.38,98.55V207.12H469.75L415.62,141.2v65.92H390.81V98.55h20.78l54,65.92V98.55Z" transform="translate(-4.34 -11.01)"/></g></g></g></svg>